<?xml version="1.0" encoding="UTF-8" standalone="no"?><!DOCTYPE svg PUBLIC "-//W3C//DTD SVG 1.1//EN" "http://www.w3.org/Graphics/SVG/1.1/DTD/svg11.dtd"><svg width="100%" height="100%" viewBox="0 0 300 100" version="1.1" xmlns="http://www.w3.org/2000/svg" xmlns:xlink="http://www.w3.org/1999/xlink" xml:space="preserve" xmlns:serif="http://www.serif.com/" style="fill-rule:evenodd;clip-rule:evenodd;stroke-linejoin:round;stroke-miterlimit:2;"><g><g><g><path d="M97.302,26.12l0.149,0.15l-43.365,43.365l-43.364,-43.365l0.149,-0.15l29.417,0l13.798,13.799l13.798,-13.799l29.418,0Z" style="fill:#a51c30;"/><path d="M65.354,21.662l-11.268,-11.267l-11.267,11.267l11.267,11.267l11.268,-11.267Z" style="fill:#a51c30;"/><path d="M47.791,89.605l-4.972,-4.971l11.267,-11.268l11.268,11.268l-4.971,4.971l-6.297,-6.295l-6.295,6.295Z" style="fill:#a51c30;"/></g><g><g><g><g><path d="M133.004,38.941c-0.584,2.121 -1.522,3.866 -2.814,5.235c-1.291,1.368 -2.829,2.368 -4.612,2.998c-1.784,0.63 -3.752,0.946 -5.904,0.946c-3.075,0 -5.735,-0.623 -7.98,-1.868c-2.245,-1.246 -3.967,-3.037 -5.166,-5.374c-1.2,-2.337 -1.799,-5.151 -1.799,-8.441c0,-3.291 0.599,-6.104 1.799,-8.441c1.199,-2.337 2.921,-4.129 5.166,-5.374c2.245,-1.245 4.889,-1.868 7.933,-1.868c2.122,0 4.075,0.3 5.858,0.899c1.784,0.6 3.291,1.515 4.521,2.745c1.23,1.23 2.106,2.814 2.629,4.751l-6.965,2.814c-0.431,-1.907 -1.13,-3.214 -2.099,-3.921c-0.968,-0.707 -2.191,-1.061 -3.667,-1.061c-1.445,0 -2.698,0.354 -3.759,1.061c-1.061,0.707 -1.876,1.76 -2.445,3.159c-0.569,1.4 -0.853,3.145 -0.853,5.236c0,2.06 0.261,3.797 0.784,5.212c0.523,1.415 1.315,2.475 2.376,3.183c1.06,0.707 2.375,1.061 3.943,1.061c1.476,0 2.729,-0.408 3.76,-1.223c1.03,-0.815 1.729,-2.068 2.098,-3.759l7.196,2.03Z" style="fill:#a51c30;fill-rule:nonzero;"/><path d="M136.879,47.658l0,-23.063l6.918,0l0.323,4.982c0.585,-1.722 1.453,-3.06 2.606,-4.013c1.154,-0.953 2.622,-1.43 4.406,-1.43c0.584,0 1.083,0.046 1.499,0.138c0.415,0.093 0.745,0.216 0.991,0.369l-0.784,6.458c-0.307,-0.123 -0.699,-0.223 -1.176,-0.3c-0.477,-0.077 -1.053,-0.115 -1.73,-0.115c-0.922,0 -1.783,0.2 -2.583,0.6c-0.799,0.399 -1.437,0.991 -1.914,1.775c-0.477,0.785 -0.715,1.776 -0.715,2.976l0,11.623l-7.841,0Z" style="fill:#a51c30;fill-rule:nonzero;"/><path d="M160.633,21.92c-1.599,0 -2.759,-0.3 -3.482,-0.899c-0.723,-0.6 -1.084,-1.546 -1.084,-2.837c0,-1.322 0.361,-2.283 1.084,-2.883c0.723,-0.6 1.883,-0.899 3.482,-0.899c1.569,0 2.722,0.299 3.46,0.899c0.738,0.6 1.107,1.561 1.107,2.883c0,1.291 -0.369,2.237 -1.107,2.837c-0.738,0.599 -1.891,0.899 -3.46,0.899Zm3.921,2.675l0,23.063l-7.841,0l0,-23.063l7.841,0Z" style="fill:#a51c30;fill-rule:nonzero;"/><path d="M170.135,47.658l0,-23.063l7.012,0l0.23,4.475c0.738,-1.63 1.776,-2.86 3.114,-3.691c1.337,-0.83 2.883,-1.245 4.635,-1.245c1.722,0 3.214,0.384 4.475,1.153c1.26,0.769 2.198,1.907 2.813,3.414c0.492,-1.015 1.13,-1.861 1.915,-2.537c0.784,-0.677 1.683,-1.184 2.698,-1.523c1.015,-0.338 2.06,-0.507 3.136,-0.507c1.538,0 2.891,0.3 4.06,0.9c1.168,0.599 2.098,1.506 2.79,2.721c0.692,1.215 1.038,2.729 1.038,4.543l0,15.36l-7.841,0l0,-13.561c0,-1.476 -0.285,-2.506 -0.854,-3.09c-0.569,-0.584 -1.33,-0.877 -2.283,-0.877c-0.769,0 -1.468,0.193 -2.099,0.577c-0.63,0.384 -1.114,0.961 -1.453,1.73c-0.338,0.769 -0.507,1.737 -0.507,2.906l0,12.315l-7.841,0l0,-13.561c0,-1.476 -0.293,-2.506 -0.877,-3.09c-0.584,-0.584 -1.338,-0.877 -2.26,-0.877c-0.707,0 -1.376,0.185 -2.007,0.554c-0.63,0.369 -1.13,0.946 -1.499,1.73c-0.369,0.784 -0.553,1.806 -0.553,3.067l0,12.177l-7.842,0Z" style="fill:#a51c30;fill-rule:nonzero;"/><path d="M223.226,48.12c-2.306,0 -4.451,-0.377 -6.434,-1.13c-1.984,-0.754 -3.621,-1.838 -4.913,-3.252l3.691,-4.336c0.768,0.984 1.791,1.806 3.067,2.468c1.276,0.661 2.698,0.991 4.267,0.991c0.953,0 1.737,-0.138 2.352,-0.415c0.615,-0.277 0.923,-0.707 0.923,-1.291c0,-0.431 -0.154,-0.777 -0.462,-1.038c-0.307,-0.262 -0.922,-0.485 -1.845,-0.669l-3.229,-0.646c-2.89,-0.584 -4.943,-1.453 -6.157,-2.606c-1.215,-1.153 -1.822,-2.668 -1.822,-4.543c0,-1.261 0.384,-2.468 1.153,-3.621c0.769,-1.153 1.952,-2.091 3.551,-2.814c1.599,-0.723 3.644,-1.084 6.135,-1.084c2.337,0 4.398,0.338 6.181,1.015c1.784,0.676 3.198,1.66 4.244,2.952l-3.737,4.244c-0.738,-0.923 -1.691,-1.646 -2.859,-2.168c-1.169,-0.523 -2.337,-0.785 -3.506,-0.785c-0.738,0 -1.361,0.07 -1.868,0.208c-0.507,0.138 -0.884,0.331 -1.13,0.577c-0.246,0.246 -0.369,0.553 -0.369,0.922c0,0.4 0.192,0.746 0.576,1.038c0.385,0.292 1.1,0.546 2.145,0.761l4.198,0.83c2.368,0.431 4.074,1.215 5.12,2.353c1.045,1.137 1.568,2.506 1.568,4.105c0,1.507 -0.4,2.86 -1.199,4.059c-0.8,1.199 -1.999,2.145 -3.598,2.837c-1.599,0.692 -3.613,1.038 -6.043,1.038Z" style="fill:#a51c30;fill-rule:nonzero;"/></g><g><path d="M249.518,24.134c2.429,0 4.559,0.469 6.388,1.407c1.83,0.938 3.26,2.306 4.29,4.105c1.03,1.799 1.545,3.959 1.545,6.481c0,2.521 -0.515,4.682 -1.545,6.481c-1.03,1.798 -2.46,3.167 -4.29,4.105c-1.829,0.938 -3.959,1.407 -6.388,1.407c-2.368,0 -4.474,-0.469 -6.319,-1.407c-1.846,-0.938 -3.283,-2.307 -4.313,-4.105c-1.03,-1.799 -1.545,-3.96 -1.545,-6.481c0,-2.522 0.515,-4.682 1.545,-6.481c1.03,-1.799 2.467,-3.167 4.313,-4.105c1.845,-0.938 3.951,-1.407 6.319,-1.407Zm0,5.581c-0.892,0 -1.661,0.216 -2.307,0.646c-0.645,0.431 -1.137,1.122 -1.476,2.076c-0.338,0.953 -0.507,2.183 -0.507,3.69c0,1.507 0.169,2.729 0.507,3.667c0.339,0.938 0.831,1.63 1.476,2.076c0.646,0.445 1.415,0.668 2.307,0.668c0.922,0 1.706,-0.223 2.352,-0.668c0.646,-0.446 1.138,-1.138 1.476,-2.076c0.338,-0.938 0.508,-2.16 0.508,-3.667c0,-1.507 -0.17,-2.737 -0.508,-3.69c-0.338,-0.954 -0.83,-1.645 -1.476,-2.076c-0.646,-0.43 -1.43,-0.646 -2.352,-0.646Z" style="fill:#a51c30;fill-rule:nonzero;"/><path d="M266.169,47.658l0,-23.063l7.011,0l0.416,7.934l-0.877,-0.876c0.308,-1.661 0.853,-3.045 1.638,-4.152c0.784,-1.107 1.768,-1.945 2.952,-2.514c1.184,-0.568 2.514,-0.853 3.99,-0.853c1.599,0 2.99,0.308 4.174,0.923c1.184,0.615 2.114,1.522 2.791,2.721c0.676,1.199 1.014,2.706 1.014,4.52l0,15.36l-7.841,0l0,-13.284c0,-1.599 -0.308,-2.706 -0.923,-3.321c-0.615,-0.615 -1.399,-0.923 -2.352,-0.923c-0.738,0 -1.43,0.177 -2.076,0.531c-0.645,0.354 -1.153,0.915 -1.522,1.684c-0.369,0.768 -0.553,1.798 -0.553,3.09l0,12.223l-7.842,0Z" style="fill:#a51c30;fill-rule:nonzero;"/></g></g><g><g><path d="M133.511,54.694l0,30.443l-7.933,0l0,-30.443l7.933,0Zm-19.557,0l0,30.443l-7.934,0l0,-30.443l7.934,0Zm15.867,12.039l0,6.135l-19.926,0l0,-6.135l19.926,0Z" style="fill:#a51c30;fill-rule:nonzero;"/><path d="M152.469,70.515c0,-1.076 -0.3,-1.929 -0.899,-2.56c-0.6,-0.63 -1.407,-0.945 -2.422,-0.945c-1.015,0 -1.883,0.253 -2.606,0.761c-0.723,0.507 -1.222,1.407 -1.499,2.698l-6.642,-1.568c0.43,-2.214 1.568,-3.982 3.413,-5.305c1.845,-1.322 4.444,-1.983 7.795,-1.983c2.245,0 4.159,0.331 5.743,0.992c1.584,0.661 2.798,1.645 3.644,2.952c0.846,1.307 1.268,2.913 1.268,4.82l0,8.441c0,1.199 0.539,1.799 1.615,1.799c0.553,0 0.999,-0.062 1.338,-0.185l-0.462,4.475c-0.922,0.43 -2.045,0.645 -3.367,0.645c-1.199,0 -2.26,-0.192 -3.183,-0.576c-0.922,-0.385 -1.645,-0.969 -2.168,-1.753c-0.522,-0.784 -0.784,-1.776 -0.784,-2.975l0,-0.277l0.877,-0.323c0,1.323 -0.392,2.43 -1.176,3.321c-0.785,0.892 -1.799,1.553 -3.045,1.984c-1.245,0.43 -2.544,0.645 -3.897,0.645c-1.569,0 -2.937,-0.246 -4.106,-0.738c-1.168,-0.492 -2.068,-1.206 -2.698,-2.144c-0.63,-0.938 -0.946,-2.099 -0.946,-3.483c0,-1.66 0.5,-3.037 1.499,-4.128c1,-1.092 2.576,-1.853 4.728,-2.283l8.718,-1.799l-0.046,4.151l-4.428,0.923c-0.923,0.184 -1.607,0.453 -2.053,0.807c-0.446,0.353 -0.668,0.884 -0.668,1.591c0,0.677 0.246,1.184 0.738,1.522c0.492,0.339 1.076,0.508 1.752,0.508c0.523,0 1.023,-0.077 1.499,-0.231c0.477,-0.154 0.9,-0.392 1.269,-0.715c0.369,-0.323 0.661,-0.73 0.876,-1.222c0.216,-0.492 0.323,-1.077 0.323,-1.753l0,-6.089Z" style="fill:#a51c30;fill-rule:nonzero;"/></g><g><path d="M195.965,62.074l8.211,0l-6.965,23.063l-9.41,0l-4.197,-14.16l-4.06,14.16l-9.363,0l-7.011,-23.063l8.256,0l3.875,17.021l4.52,-17.021l7.749,0l4.475,17.021l3.92,-17.021Z" style="fill:#a51c30;fill-rule:nonzero;"/><path d="M232.589,62.074l-11.07,11.808l-1.476,0.416l-6.596,7.38l-0.046,-8.026l10.471,-11.578l8.717,0Zm-17.481,-9.778l0,32.841l-7.842,0l0,-32.841l7.842,0Zm7.61,16.697l10.379,16.144l-8.672,0l-6.827,-11.531l5.12,-4.613Z" style="fill:#a51c30;fill-rule:nonzero;"/></g></g></g></g></g></g></svg>